HIERARCHY
ROOT joint_Root
{
	OFFSET 0.0 0.0 0.0
	CHANNELS 6 Xposition Yposition Zposition Zrotation Xrotation Yrotation 
	JOINT Hips
	{
		OFFSET 4.5925 91.4895 -427.239
		CHANNELS 6 Xposition Yposition Zposition Zrotation Xrotation Yrotation 
		JOINT Spine
		{
			OFFSET 15.7357 0.0 0.0
			CHANNELS 6 Xposition Yposition Zposition Zrotation Xrotation Yrotation 
			JOINT Chest
			{
				OFFSET 8.98455 -0.406207 0.0
				CHANNELS 6 Xposition Yposition Zposition Zrotation Xrotation Yrotation 
				JOINT Neck
				{
					OFFSET 16.3773 0.0 0.0
					CHANNELS 6 Xposition Yposition Zposition Zrotation Xrotation Yrotation 
					JOINT Head
					{
						OFFSET 6.45672 0.0 0.0
						CHANNELS 6 Xposition Yposition Zposition Zrotation Xrotation Yrotation 
						End Site
						{
							OFFSET 0.0 0.0 0.0
						}
					}
				}
				JOINT Shoulder_L
				{
					OFFSET 12.9942 -0.242716 4.98039
					CHANNELS 6 Xposition Yposition Zposition Zrotation Xrotation Yrotation 
					JOINT UpperArm_L
					{
						OFFSET 5.34809 0.0 0.0
						CHANNELS 6 Xposition Yposition Zposition Zrotation Xrotation Yrotation 
						JOINT LowerArm_L
						{
							OFFSET 24.3286 1.87007e-05 0.0
							CHANNELS 6 Xposition Yposition Zposition Zrotation Xrotation Yrotation 
							JOINT Hand_L
							{
								OFFSET 22.2916 0.0 0.0
								CHANNELS 6 Xposition Yposition Zposition Zrotation Xrotation Yrotation 
								End Site
								{
									OFFSET 0.0 0.0 0.0
								}
							}
						}
					}
				}
				JOINT Shoulder_R
				{
					OFFSET 12.9945 -0.242716 -4.98039
					CHANNELS 6 Xposition Yposition Zposition Zrotation Xrotation Yrotation 
					JOINT UpperArm_R
					{
						OFFSET -5.34813 0.0 0.0
						CHANNELS 6 Xposition Yposition Zposition Zrotation Xrotation Yrotation 
						JOINT LowerArm_R
						{
							OFFSET -24.3289 0.000322201 0.0
							CHANNELS 6 Xposition Yposition Zposition Zrotation Xrotation Yrotation 
							JOINT Hand_R
							{
								OFFSET -22.2915 -0.000108084 0.0
								CHANNELS 6 Xposition Yposition Zposition Zrotation Xrotation Yrotation 
								End Site
								{
									OFFSET 0.0 0.0 0.0
								}
							}
						}
					}
				}
			}
		}
		JOINT UpperLeg_L
		{
			OFFSET -2.19248 -6.46944 0.0
			CHANNELS 6 Xposition Yposition Zposition Zrotation Xrotation Yrotation 
			JOINT LowerLeg_L
			{
				OFFSET 39.0811 0.0 -1.23785e-05
				CHANNELS 6 Xposition Yposition Zposition Zrotation Xrotation Yrotation 
				JOINT Foot_L
				{
					OFFSET 40.9854 0.0 -1.26872e-05
					CHANNELS 6 Xposition Yposition Zposition Zrotation Xrotation Yrotation 
					JOINT Toes_L
					{
						OFFSET 11.7543 0.0 0.0
						CHANNELS 6 Xposition Yposition Zposition Zrotation Xrotation Yrotation 
						End Site
						{
							OFFSET 0.0 0.0 0.0
						}
					}
				}
			}
		}
		JOINT UpperLeg_R
		{
			OFFSET -2.19251 6.46944 0.0
			CHANNELS 6 Xposition Yposition Zposition Zrotation Xrotation Yrotation 
			JOINT LowerLeg_R
			{
				OFFSET -39.0811 -0.00228153 -0.0401928
				CHANNELS 6 Xposition Yposition Zposition Zrotation Xrotation Yrotation 
				JOINT Foot_R
				{
					OFFSET -40.9854 0.0 0.0
					CHANNELS 6 Xposition Yposition Zposition Zrotation Xrotation Yrotation 
					JOINT Toes_R
					{
						OFFSET -11.7543 0.0 0.0
						CHANNELS 6 Xposition Yposition Zposition Zrotation Xrotation Yrotation 
						End Site
						{
							OFFSET 0.0 0.0 0.0
						}
					}
				}
			}
		}
	}
}
MOTION
Frames:	9
Frame Time:	0.0333333
0.000000 0.000000 0.000000 0.000000 0.000000 -0.000000 121.808000 87.097100 149.428000 101.786000 -59.933700 8.858040 15.735700 0.000005 -0.000001 122.477000 82.302400 -123.755000 8.984550 -0.406207 -0.000000 5.359430 8.275360 -2.943710 16.377300 -0.000001 -0.000001 -0.909172 -9.307360 2.660200 6.456720 -0.000001 -0.000000 -5.029490 -16.120400 4.714020 12.994200 -0.242716 4.980390 -87.690200 -5.805540 -68.262500 5.348090 -0.000007 -0.000001 -74.187800 37.364700 36.536100 24.328600 0.000019 0.000005 -2.890770 -0.129329 -87.441100 22.291600 -0.000001 0.000005 8.017450 5.527150 -7.665280 12.994500 -0.242716 -4.980390 89.637000 2.220930 -80.715000 -5.348130 -0.000001 -0.000004 -54.856700 34.994600 -43.639300 -24.328900 0.000322 -0.000009 -20.864500 10.989900 -116.571000 -22.291500 -0.000108 -0.000004 22.434000 5.618790 -12.537400 -2.192480 -6.469440 -0.000000 -169.981000 -2.160070 -22.958600 39.081100 -0.000007 -0.000012 -0.443350 0.741287 30.884100 40.985400 -0.000006 -0.000013 -14.357300 3.774380 -60.305100 11.754300 -0.000000 0.000003 -0.006722 -0.077265 -19.722000 -2.192510 6.469440 -0.000001 173.694000 -2.818230 -170.045000 -39.081100 -0.002282 -0.040193 0.062399 -0.092826 32.485100 -40.985400 0.000008 0.000006 24.906200 17.063700 -76.640100 -11.754300 -0.000006 -0.000006 -0.104120 -0.454663 -35.569800
0.000000 0.000000 0.000000 0.000000 0.000000 -0.000000 119.234000 85.132200 154.227000 103.206000 -59.595500 11.798700 15.735700 0.000005 -0.000001 112.235000 82.615800 -113.454000 8.984550 -0.406207 -0.000000 5.987140 5.592720 -2.729330 16.377300 -0.000001 -0.000001 -0.827745 -9.250930 2.819900 6.456720 -0.000001 -0.000000 -5.685860 -14.940300 4.032210 12.994200 -0.242716 4.980390 -89.394000 -1.618630 -69.485400 5.348090 -0.000007 -0.000001 -69.357500 35.566900 29.941800 24.328600 0.000019 0.000005 2.295370 0.085054 -87.872300 22.291600 -0.000001 0.000005 15.816900 5.556670 -8.970350 12.994500 -0.242716 -4.980390 89.154900 5.369000 -81.041300 -5.348130 -0.000001 -0.000004 -55.338500 36.626400 -33.287000 -24.328900 0.000322 -0.000009 -20.204500 6.881840 -108.028000 -22.291500 -0.000108 -0.000004 21.983000 5.603410 -11.543700 -2.192480 -6.469440 -0.000000 -172.209000 -4.053210 -24.490000 39.081100 -0.000007 -0.000012 -0.363749 0.387313 43.203800 40.985400 -0.000006 -0.000013 -11.881000 6.894310 -67.524000 11.754300 -0.000000 0.000003 -0.000007 -0.000092 -16.581100 -2.192510 6.469440 -0.000001 171.490000 -3.339230 -169.082000 -39.081100 -0.002282 -0.040193 0.083756 -0.096620 39.791700 -40.985400 0.000008 0.000006 24.953200 16.737700 -74.843200 -11.754300 -0.000006 -0.000006 -0.201085 -0.646902 -44.307400
0.000000 0.000000 0.000000 0.000000 0.000000 -0.000000 116.462000 83.897000 158.492000 103.362000 -58.912800 14.011400 15.735700 0.000005 -0.000001 101.931000 82.391300 -103.058000 8.984550 -0.406207 -0.000000 7.162680 3.140720 -2.448930 16.377300 -0.000001 -0.000001 -1.987400 -9.309900 3.062250 6.456720 -0.000001 -0.000000 -5.213760 -13.426600 3.842230 12.994200 -0.242716 4.980390 -91.176600 3.258650 -70.129900 5.348090 -0.000007 -0.000001 -62.469500 35.495900 17.150500 24.328600 0.000019 0.000005 3.643130 0.112550 -88.233100 22.291600 -0.000001 0.000005 26.926400 5.579730 -10.164100 12.994500 -0.242716 -4.980390 88.460700 9.567440 -80.816200 -5.348130 -0.000001 -0.000004 -56.513300 35.831100 -20.878000 -24.328900 0.000322 -0.000009 -15.602800 1.109470 -93.928000 -22.291500 -0.000108 -0.000004 19.210100 5.581650 -10.281100 -2.192480 -6.469440 -0.000000 -173.447000 -5.656430 -22.409200 39.081100 -0.000007 -0.000012 -0.301685 0.255520 49.736900 40.985400 -0.000006 -0.000013 -8.999690 9.677000 -73.798300 11.754300 -0.000000 0.000003 -0.000189 -0.001762 -16.644100 -2.192510 6.469440 -0.000001 170.113000 -2.720810 -172.806000 -39.081100 -0.002282 -0.040193 0.138957 -0.103060 52.788700 -40.985400 0.000008 0.000006 20.325000 19.409600 -63.609500 -11.754300 -0.000006 -0.000006 -0.280454 -0.764511 -50.062500
0.000000 0.000000 0.000000 0.000000 0.000000 -0.000000 113.821000 83.532500 162.054000 105.375000 -59.182400 18.339700 15.735700 0.000005 -0.000001 99.228600 81.464400 -100.741000 8.984550 -0.406207 -0.000000 9.129520 2.705140 -3.239260 16.377300 -0.000001 -0.000001 -2.274060 -9.325410 2.690070 6.456720 -0.000001 -0.000000 -5.964740 -13.378300 4.505380 12.994200 -0.242716 4.980390 -91.964400 5.875130 -71.473000 5.348090 -0.000007 -0.000001 -55.554400 33.970200 -2.922560 24.328600 0.000019 0.000005 4.140130 0.055281 -89.228700 22.291600 -0.000001 0.000005 29.563100 5.597360 -11.184100 12.994500 -0.242716 -4.980390 88.237300 10.788100 -80.663200 -5.348130 -0.000001 -0.000004 -62.357800 30.811200 -9.256510 -24.328900 0.000322 -0.000009 -11.972600 -4.474640 -69.833800 -22.291500 -0.000108 -0.000004 18.200300 5.492980 -6.288860 -2.192480 -6.469440 -0.000000 -174.717000 -7.955380 -17.092900 39.081100 -0.000007 -0.000012 -0.233983 0.187926 51.230700 40.985400 -0.000006 -0.000013 -6.667180 11.643000 -77.829800 11.754300 -0.000000 0.000003 -0.000198 -0.001839 -16.647000 -2.192510 6.469440 -0.000001 168.710000 -3.764290 -179.875000 -39.081100 -0.002282 -0.040193 0.259345 -0.109897 66.783000 -40.985400 0.000008 0.000006 7.703110 19.032100 -45.504100 -11.754300 -0.000006 -0.000006 -0.093490 -0.428109 -34.410100
0.000000 0.000000 0.000000 0.000000 0.000000 -0.000000 111.072000 83.915700 164.579000 104.233000 -59.262700 18.113100 15.735700 0.000005 -0.000001 96.763100 81.397100 -98.079600 8.984550 -0.406207 -0.000000 9.348760 1.996750 -2.794430 16.377300 -0.000001 -0.000001 -2.233630 -9.457340 2.178600 6.456720 -0.000001 -0.000000 -5.796090 -13.166900 3.880680 12.994200 -0.242716 4.980390 -92.189600 7.215070 -73.068300 5.348090 -0.000007 -0.000001 -52.638000 29.654100 -21.632500 24.328600 0.000019 0.000005 8.860030 -0.368270 -92.350100 22.291600 -0.000001 0.000005 27.514600 5.613120 -12.168700 12.994500 -0.242716 -4.980390 88.228500 11.147400 -80.911100 -5.348130 -0.000001 -0.000004 -65.392600 24.571200 1.101440 -24.328900 0.000322 -0.000009 -16.391000 -12.575900 -53.497300 -22.291500 -0.000108 -0.000004 20.018400 5.491840 -6.221310 -2.192480 -6.469440 -0.000000 -174.705000 -6.000640 -12.604800 39.081100 -0.000007 -0.000012 -0.273188 0.232936 49.547800 40.985400 -0.000006 -0.000013 -6.729260 9.980840 -80.213700 11.754300 -0.000000 0.000003 -0.000177 -0.001671 -16.640800 -2.192510 6.469440 -0.000001 169.906000 -2.469540 172.003000 -39.081100 -0.002282 -0.040193 0.417190 -0.099842 76.447600 -40.985400 0.000008 0.000006 -0.444155 7.608070 -35.755200 -11.754300 -0.000006 -0.000006 -0.027322 -0.204918 -24.962000
0.000000 0.000000 0.000000 0.000000 0.000000 -0.000000 107.879000 85.127300 166.548000 101.193000 -58.529800 15.078900 15.735700 0.000005 -0.000001 90.724900 81.784300 -91.424700 8.984550 -0.406207 -0.000000 8.665700 0.201382 -1.413410 16.377300 -0.000001 -0.000001 -2.565260 -9.586430 1.400750 6.456720 -0.000001 -0.000000 -5.585420 -12.058400 2.578330 12.994200 -0.242716 4.980390 -91.335000 4.970140 -74.950400 5.348090 -0.000007 -0.000001 -58.708000 25.058000 -33.775000 24.328600 0.000019 0.000005 11.825100 -1.450560 -96.895700 22.291600 -0.000001 0.000005 24.766700 5.606560 -11.727900 12.994500 -0.242716 -4.980390 88.073700 10.639200 -79.673400 -5.348130 -0.000001 -0.000004 -64.282600 24.699600 12.882300 -24.328900 0.000322 -0.000009 -19.251700 -12.980900 -57.250700 -22.291500 -0.000108 -0.000004 18.025300 5.534710 -8.017510 -2.192480 -6.469440 -0.000000 -173.826000 -3.374470 -7.667600 39.081100 -0.000007 -0.000012 -0.315509 0.325680 44.091900 40.985400 -0.000006 -0.000013 -7.381430 8.326610 -80.452500 11.754300 -0.000000 0.000003 -0.000159 -0.001528 -16.635500 -2.192510 6.469440 -0.000001 173.185000 2.149300 166.157000 -39.081100 -0.002282 -0.040193 0.367874 -0.058061 80.963300 -40.985400 0.000008 0.000006 7.677640 0.664431 -44.908400 -11.754300 -0.000006 -0.000006 -0.024607 -0.191587 -24.410400
0.000000 0.000000 0.000000 0.000000 0.000000 -0.000000 104.660000 86.610600 168.216000 98.130300 -57.888300 10.535500 15.735700 0.000005 -0.000001 75.184900 82.431800 -75.243500 8.984550 -0.406207 -0.000000 6.877050 -3.857050 0.114774 16.377300 -0.000001 -0.000001 -2.041570 -8.639870 0.838269 6.456720 -0.000001 -0.000000 -6.392920 -8.804610 1.681130 12.994200 -0.242716 4.980390 -90.150000 0.570627 -75.246000 5.348090 -0.000007 -0.000001 -66.068200 21.713700 -40.597700 24.328600 0.000019 0.000005 5.824390 -1.420060 -103.706000 22.291600 -0.000001 0.000005 23.259400 5.569590 -9.653540 12.994500 -0.242716 -4.980390 88.460700 7.161200 -77.832300 -5.348130 -0.000001 -0.000004 -64.762000 30.468300 21.088100 -24.328900 0.000322 -0.000009 -19.999100 -9.544160 -65.507000 -22.291500 -0.000108 -0.000004 12.342700 5.542160 -8.345410 -2.192480 -6.469440 -0.000000 -172.379000 -2.671220 -3.141300 39.081100 -0.000007 -0.000012 -0.275021 0.378341 36.014400 40.985400 -0.000006 -0.000013 -7.804310 8.009530 -78.908000 11.754300 -0.000000 0.000003 -0.000107 -0.001091 -16.619400 -2.192510 6.469440 -0.000001 177.074000 5.849800 159.134000 -39.081100 -0.002282 -0.040193 0.318363 -0.051578 80.716500 -40.985400 0.000008 0.000006 8.274590 -4.798960 -49.496200 -11.754300 -0.000006 -0.000006 -0.021688 -0.176465 -23.786100
0.000000 0.000000 0.000000 0.000000 0.000000 -0.000000 101.517000 88.007800 169.903000 96.466300 -58.208100 7.112940 15.735700 0.000005 -0.000001 58.555600 82.486100 -58.050000 8.984550 -0.406207 -0.000000 5.127920 -7.835010 1.362600 16.377300 -0.000001 -0.000001 -1.483640 -7.516850 0.367643 6.456720 -0.000001 -0.000000 -6.976430 -5.923480 0.823612 12.994200 -0.242716 4.980390 -89.165800 -3.082980 -74.852000 5.348090 -0.000007 -0.000001 -69.322300 18.906400 -45.914700 24.328600 0.000019 0.000005 0.296644 -0.112094 -110.873000 22.291600 -0.000001 0.000005 21.757400 5.543250 -8.385060 12.994500 -0.242716 -4.980390 89.222800 3.235100 -76.474300 -5.348130 -0.000001 -0.000004 -64.826400 36.479200 27.111900 -24.328900 0.000322 -0.000009 -20.593400 -5.855140 -74.811000 -22.291500 -0.000108 -0.000004 9.112660 5.534910 -8.011530 -2.192480 -6.469440 -0.000000 -171.416000 -4.232110 0.812144 39.081100 -0.000007 -0.000012 -0.086908 0.159146 28.638700 40.985400 -0.000006 -0.000013 -6.436790 8.087930 -74.777700 11.754300 -0.000000 0.000003 -0.937762 -1.174220 -18.550600 -2.192510 6.469440 -0.000001 -179.579000 7.665220 153.173000 -39.081100 -0.002282 -0.040193 0.233473 -0.055085 76.558700 -40.985400 0.000008 0.000006 8.582950 -5.420060 -54.313400 -11.754300 -0.000006 -0.000006 -0.023350 -0.185185 -24.146000
0.000000 0.000000 0.000000 0.000000 0.000000 -0.000000 98.436200 88.985900 171.534000 95.923300 -59.982700 4.749700 15.735700 0.000005 -0.000001 48.974600 82.486400 -47.935700 8.984550 -0.406207 -0.000000 3.708040 -9.887850 2.400420 16.377300 -0.000001 -0.000001 -1.519880 -6.822100 0.061848 6.456720 -0.000001 -0.000000 -7.293960 -4.165180 -0.307499 12.994200 -0.242716 4.980390 -88.508700 -5.560270 -74.960400 5.348090 -0.000007 -0.000001 -69.301600 16.734600 -50.074600 24.328600 0.000019 0.000005 1.028400 -0.532724 -117.356000 22.291600 -0.000001 0.000005 18.824500 5.520740 -7.382700 12.994500 -0.242716 -4.980390 90.084500 -0.331600 -75.690500 -5.348130 -0.000001 -0.000004 -64.491800 39.020300 31.993000 -24.328900 0.000322 -0.000009 -20.332100 -2.613060 -82.986400 -22.291500 -0.000108 -0.000004 7.751600 5.527950 -7.704800 -2.192480 -6.469440 -0.000000 -170.111000 -9.098810 3.131870 39.081100 -0.000007 -0.000012 -0.100354 0.219912 24.529100 40.985400 -0.000006 -0.000013 -6.022560 10.774300 -67.943600 11.754300 -0.000000 0.000003 -1.053440 -1.278900 -24.774600 -2.192510 6.469440 -0.000001 -176.879000 8.177250 148.549000 -39.081100 -0.002282 -0.040193 0.142762 -0.053603 68.999500 -40.985400 0.000008 0.000006 7.785490 -4.297600 -58.458400 -11.754300 -0.000006 -0.000006 -0.023881 -0.187908 -24.258400
